<svg xmlns="http://www.w3.org/2000/svg" xmlns:xlink="http://www.w3.org/1999/xlink" viewBox="0 0 354.08 206.13"><defs><style>.cls-1{fill:#c8e9e8;}.cls-2{fill:#a1dfe2;}.cls-3{fill:#5195a0;}.cls-4{fill:#046995;}.cls-5{fill:#6eefd7;}.cls-6{opacity:0.7;}.cls-7{fill:#d2fff3;}.cls-8{fill:url(#linear-gradient);}.cls-9{fill:url(#linear-gradient-2);}.cls-10{fill:#87d0ca;}.cls-11{fill:url(#linear-gradient-3);}.cls-12{fill:url(#linear-gradient-4);}.cls-13{fill:url(#linear-gradient-5);}.cls-14{fill:url(#linear-gradient-6);}.cls-15{fill:url(#linear-gradient-7);}.cls-16{fill:url(#linear-gradient-8);}.cls-17{fill:url(#linear-gradient-9);}</style><linearGradient id="linear-gradient" x1="111.75" y1="68.91" x2="126.08" y2="68.91" gradientUnits="userSpaceOnUse"><stop offset="0" stop-color="#7edee1"/><stop offset="1" stop-color="#98d9e5"/></linearGradient><linearGradient id="linear-gradient-2" x1="118.65" y1="87.37" x2="125.58" y2="87.37" xlink:href="#linear-gradient"/><linearGradient id="linear-gradient-3" x1="86.21" y1="135.5" x2="101.01" y2="135.5" xlink:href="#linear-gradient"/><linearGradient id="linear-gradient-4" x1="7.01" y1="87.74" x2="21.8" y2="87.74" xlink:href="#linear-gradient"/><linearGradient id="linear-gradient-5" x1="35.33" y1="9.82" x2="42.81" y2="9.82" xlink:href="#linear-gradient"/><linearGradient id="linear-gradient-6" x1="331.85" y1="125.59" x2="339.33" y2="125.59" xlink:href="#linear-gradient"/><linearGradient id="linear-gradient-7" x1="270.29" y1="151.01" x2="277.77" y2="151.01" xlink:href="#linear-gradient"/><linearGradient id="linear-gradient-8" x1="191.52" y1="178.94" x2="199" y2="178.94" xlink:href="#linear-gradient"/><linearGradient id="linear-gradient-9" x1="296.11" y1="46.02" x2="303.59" y2="46.02" xlink:href="#linear-gradient"/></defs><title>Asset 24</title><g id="Layer_2" data-name="Layer 2"><g id="Layer_1-2" data-name="Layer 1"><path class="cls-1" d="M248.56,200.59c0,3.06-26.09,5.54-58.29,5.54S132,203.65,132,200.59s26.1-5.55,58.29-5.55S248.56,197.52,248.56,200.59Z"/><path class="cls-2" d="M200.47,158.67c-37.41,2.4-98.18-19.75-75.54-55.42,17.55-27.63,3.24-47.24-5.84-55.58-16-14.69.7-52.06,76.26-47.24,69,4.4,94.58,50.39,85.89,91.74C273.44,129.26,243.41,155.92,200.47,158.67Z"/><rect class="cls-3" x="146.09" y="116.11" width="19.82" height="6.45" transform="translate(-38.69 145.26) rotate(-45)"/><rect class="cls-4" x="86.63" y="143.76" width="74.32" height="15.55" transform="translate(-70.9 131.92) rotate(-45)"/><rect class="cls-5" x="145.64" y="119.32" width="5.18" height="15.55" transform="translate(-46.45 142.04) rotate(-45)"/><path class="cls-4" d="M200,15a59.48,59.48,0,1,0,59.48,59.48A59.48,59.48,0,0,0,200,15ZM200,123a48.58,48.58,0,1,1,48.57-48.57A48.58,48.58,0,0,1,200,123Z"/><g class="cls-6"><path class="cls-7" d="M223.51,56.72c-2.25-4-2.07-8.42.4-9.8s6.3.77,8.55,4.8,2.07,8.41-.4,9.79S225.76,60.75,223.51,56.72Z"/><path class="cls-7" d="M218.77,45.46a2.56,2.56,0,1,1,3.68.5A2.64,2.64,0,0,1,218.77,45.46Z"/></g><path class="cls-8" d="M125.73,72.33c2.84-13.92-12.43-15.7-13.81-7.6C110.11,75.38,123.34,84,125.73,72.33Z"/><path class="cls-9" d="M121.63,84.09c-5.66,1.61-2.09,7.66,1.12,6.62C127,89.34,126.37,82.74,121.63,84.09Z"/><path class="cls-10" d="M295.3,98.37h-4.84a1.31,1.31,0,0,1-1.31-1.3V83.34a1.31,1.31,0,0,1,1.31-1.3h4.84a1.31,1.31,0,0,1,1.3,1.3V97.07A1.31,1.31,0,0,1,295.3,98.37Zm-4.58-1.56H295V83.6h-4.32Z"/><path class="cls-10" d="M305.21,98.37h-4.84a1.31,1.31,0,0,1-1.31-1.3V78.42a1.31,1.31,0,0,1,1.31-1.3h4.84a1.3,1.3,0,0,1,1.3,1.3V97.07A1.31,1.31,0,0,1,305.21,98.37Zm-4.58-1.56H305V78.68h-4.32Z"/><path class="cls-10" d="M315.12,98.37h-4.84a1.31,1.31,0,0,1-1.31-1.3V73.5a1.31,1.31,0,0,1,1.31-1.3h4.84a1.3,1.3,0,0,1,1.3,1.3V97.07A1.31,1.31,0,0,1,315.12,98.37Zm-4.58-1.56h4.32v-23h-4.32Z"/><path class="cls-10" d="M325,98.37h-4.84a1.31,1.31,0,0,1-1.31-1.3V68.58a1.31,1.31,0,0,1,1.31-1.31H325a1.31,1.31,0,0,1,1.3,1.31V97.07A1.31,1.31,0,0,1,325,98.37Zm-4.58-1.56h4.32v-28h-4.32Z"/><path class="cls-10" d="M290,68.84h-.12l0-1.57c.15,0,15.11.07,33.45-14.92h-3.73V50.79h8l-1.6,1.38C307.14,68.39,291.66,68.84,290,68.84Z"/><rect class="cls-10" x="321.61" y="53.94" width="6.45" height="1.56" transform="translate(200.4 359.73) rotate(-77.37)"/><path class="cls-10" d="M79.94,100.14H53.62a7.65,7.65,0,0,1-1.06-15.22,11,11,0,0,1,11-10.32,10.92,10.92,0,0,1,9.52,5.49,6,6,0,0,1,2.51-.54,6.09,6.09,0,0,1,6,5.48,7.65,7.65,0,0,1-1.7,15.11Zm-16.38-24a9.46,9.46,0,0,0-9.46,9.45v.75l-.74,0a6.08,6.08,0,0,0,.26,12.16H79.94a6.08,6.08,0,0,0,.83-12.11l-.67-.09V85.6a4.51,4.51,0,0,0-6.92-3.79l-.74.47-.38-.79A9.39,9.39,0,0,0,63.56,76.17Z"/><path class="cls-1" d="M316.11,142.38a6.58,6.58,0,1,1,6.57-6.58A6.59,6.59,0,0,1,316.11,142.38Zm0-11.59a5,5,0,1,0,5,5A5,5,0,0,0,316.11,130.79Z"/><path class="cls-1" d="M329.28,158H302.93v-.79a13.18,13.18,0,0,1,26.35,0Zm-24.76-1.57H327.7a11.62,11.62,0,0,0-23.18,0Z"/><polygon class="cls-1" points="316.89 148.3 314.19 148.3 313.04 145.51 314.48 144.91 315.23 146.73 316.89 146.73 316.89 148.3"/><rect class="cls-1" x="308.92" y="151.58" width="9.84" height="1.56" transform="translate(108.32 434.27) rotate(-79.8)"/><polygon class="cls-1" points="318.03 148.3 315.32 148.3 315.32 146.73 316.98 146.73 317.73 144.91 319.18 145.51 318.03 148.3"/><rect class="cls-1" x="317.59" y="147.44" width="1.56" height="9.84" transform="translate(-21.94 58.77) rotate(-10.2)"/><path class="cls-1" d="M291.32,177.65a6.58,6.58,0,1,1,6.57-6.57A6.58,6.58,0,0,1,291.32,177.65Zm0-11.58a5,5,0,1,0,5,5A5,5,0,0,0,291.32,166.07Z"/><path class="cls-1" d="M304.49,193.26H278.14v-.78a13.18,13.18,0,1,1,26.35,0Zm-24.76-1.56H302.9a11.61,11.61,0,0,0-23.17,0Z"/><polygon class="cls-1" points="292.1 183.57 289.4 183.57 288.24 180.78 289.69 180.19 290.44 182.01 292.1 182.01 292.1 183.57"/><rect class="cls-1" x="284.13" y="186.85" width="9.84" height="1.56" transform="translate(53.2 438.9) rotate(-79.8)"/><polygon class="cls-1" points="293.23 183.57 290.53 183.57 290.53 182.01 292.19 182.01 292.94 180.19 294.39 180.78 293.23 183.57"/><rect class="cls-1" x="292.8" y="182.71" width="1.56" height="9.84" transform="translate(-28.58 54.94) rotate(-10.2)"/><path class="cls-1" d="M340.9,177.65a6.58,6.58,0,1,1,6.57-6.57A6.58,6.58,0,0,1,340.9,177.65Zm0-11.58a5,5,0,1,0,5,5A5,5,0,0,0,340.9,166.07Z"/><path class="cls-1" d="M354.08,193.26H327.72v-.78a13.18,13.18,0,0,1,26.36,0Zm-24.77-1.56h23.18a11.62,11.62,0,0,0-23.18,0Z"/><polygon class="cls-1" points="341.68 183.57 338.98 183.57 337.83 180.78 339.27 180.19 340.03 182.01 341.68 182.01 341.68 183.57"/><rect class="cls-1" x="333.71" y="186.85" width="9.84" height="1.56" transform="translate(94 487.7) rotate(-79.8)"/><polygon class="cls-1" points="342.82 183.57 340.12 183.57 340.12 182.01 341.77 182.01 342.52 180.19 343.97 180.78 342.82 183.57"/><rect class="cls-1" x="342.38" y="182.71" width="1.56" height="9.84" transform="translate(-27.8 63.71) rotate(-10.2)"/><polygon class="cls-1" points="323.44 183.34 316.25 176.15 309.06 183.34 307.95 182.24 315.88 174.31 316.61 174.31 324.54 182.24 323.44 183.34"/><rect class="cls-1" x="315.47" y="164.4" width="1.56" height="10.68"/><rect class="cls-1" x="21.21" y="19.7" width="1.56" height="42.67"/><rect class="cls-1" x="14.8" y="54.45" width="42.67" height="1.56"/><polygon class="cls-1" points="27.63 45.23 26.52 44.12 36.42 34.23 41.18 38.98 57.69 22.48 58.79 23.58 41.18 41.2 36.42 36.44 27.63 45.23"/><polygon class="cls-1" points="59.02 27.3 57.46 27.3 57.46 23.81 53.78 23.81 53.78 22.25 59.02 22.25 59.02 27.3"/><path class="cls-1" d="M59,171.32a16.77,16.77,0,1,1,0-33.53h.78v16h16v.79A16.78,16.78,0,0,1,59,171.32Zm-.78-31.95a15.2,15.2,0,1,0,16,16h-16Z"/><path class="cls-1" d="M80.77,151H63.23V133.4H64a16.78,16.78,0,0,1,16.76,16.76Zm-16-1.57h14.4A15.23,15.23,0,0,0,64.79,135Z"/><rect class="cls-1" x="62.65" y="138.1" width="9.3" height="1.56" transform="translate(-78.49 88.26) rotate(-45)"/><rect class="cls-1" x="61.68" y="143.42" width="15.94" height="1.56" transform="translate(-81.57 91.48) rotate(-45)"/><rect class="cls-1" x="69.7" y="145.95" width="10.16" height="1.56" transform="translate(-81.85 95.86) rotate(-45)"/><path class="cls-10" d="M279.7,21.66h-1.56A6.63,6.63,0,0,0,271.52,15V13.48a6.63,6.63,0,0,0,6.62-6.62h1.56a6.63,6.63,0,0,0,6.62,6.62V15A6.63,6.63,0,0,0,279.7,21.66ZM275,14.26a8.25,8.25,0,0,1,3.91,3.91,8.25,8.25,0,0,1,3.91-3.91,8.25,8.25,0,0,1-3.91-3.91A8.25,8.25,0,0,1,275,14.26Z"/><path class="cls-10" d="M79.15,31.17H77.59A5.22,5.22,0,0,0,72.37,26V24.38a5.22,5.22,0,0,0,5.22-5.21h1.56a5.22,5.22,0,0,0,5.22,5.21V26A5.22,5.22,0,0,0,79.15,31.17Zm-3.62-6A6.76,6.76,0,0,1,78.37,28a6.76,6.76,0,0,1,2.84-2.84,6.88,6.88,0,0,1-2.84-2.84A6.88,6.88,0,0,1,75.53,25.17Z"/><path class="cls-1" d="M8.18,153.09H6.62A6.63,6.63,0,0,0,0,146.47v-1.56a6.63,6.63,0,0,0,6.62-6.62H8.18a6.63,6.63,0,0,0,6.62,6.62v1.56A6.63,6.63,0,0,0,8.18,153.09Zm-4.69-7.4A8.25,8.25,0,0,1,7.4,149.6a8.25,8.25,0,0,1,3.91-3.91,8.25,8.25,0,0,1-3.91-3.91A8.25,8.25,0,0,1,3.49,145.69Z"/><path class="cls-1" d="M258.83,186.48h-1.56a5.22,5.22,0,0,0-5.22-5.21V179.7a5.22,5.22,0,0,0,5.22-5.22h1.56a5.22,5.22,0,0,0,5.22,5.22v1.57A5.22,5.22,0,0,0,258.83,186.48Zm-3.62-6a6.85,6.85,0,0,1,2.84,2.85,6.85,6.85,0,0,1,2.84-2.85,6.76,6.76,0,0,1-2.84-2.84A6.76,6.76,0,0,1,255.21,180.48Z"/><path class="cls-1" d="M299.75,122.3h-1.56a5.22,5.22,0,0,0-5.22-5.22v-1.56a5.22,5.22,0,0,0,5.22-5.22h1.56a5.22,5.22,0,0,0,5.22,5.22v1.56A5.22,5.22,0,0,0,299.75,122.3Zm-3.62-6a6.82,6.82,0,0,1,2.84,2.84,6.82,6.82,0,0,1,2.84-2.84,6.82,6.82,0,0,1-2.84-2.84A6.82,6.82,0,0,1,296.13,116.3Z"/><path class="cls-1" d="M348.46,70.1H346.9a5.22,5.22,0,0,0-5.22-5.22V63.32a5.23,5.23,0,0,0,5.22-5.22h1.56a5.23,5.23,0,0,0,5.22,5.22v1.56A5.22,5.22,0,0,0,348.46,70.1Zm-3.62-6a6.82,6.82,0,0,1,2.84,2.84,6.82,6.82,0,0,1,2.84-2.84,6.88,6.88,0,0,1-2.84-2.84A6.88,6.88,0,0,1,344.84,64.1Z"/><path class="cls-1" d="M70.75,182.9a3.74,3.74,0,1,1,3.74-3.74A3.75,3.75,0,0,1,70.75,182.9Zm0-5.92a2.18,2.18,0,1,0,2.18,2.18A2.19,2.19,0,0,0,70.75,177Z"/><path class="cls-1" d="M88.51,63.64a3.74,3.74,0,1,1,3.74-3.74A3.75,3.75,0,0,1,88.51,63.64Zm0-5.92a2.18,2.18,0,1,0,2.18,2.18A2.18,2.18,0,0,0,88.51,57.72Z"/><path class="cls-11" d="M94.39,142.9H92.83a6.63,6.63,0,0,0-6.62-6.62v-1.56a6.63,6.63,0,0,0,6.62-6.62h1.56a6.63,6.63,0,0,0,6.62,6.62v1.56A6.63,6.63,0,0,0,94.39,142.9Zm-4.69-7.4a8.25,8.25,0,0,1,3.91,3.91,8.25,8.25,0,0,1,3.91-3.91,8.25,8.25,0,0,1-3.91-3.91A8.25,8.25,0,0,1,89.7,135.5Z"/><path class="cls-12" d="M15.19,95.14H13.62A6.61,6.61,0,0,0,7,88.53V87a6.62,6.62,0,0,0,6.61-6.61h1.57A6.62,6.62,0,0,0,21.8,87v1.57A6.62,6.62,0,0,0,15.19,95.14Zm-4.69-7.4a8.25,8.25,0,0,1,3.91,3.91,8.23,8.23,0,0,1,3.9-3.91,8.18,8.18,0,0,1-3.9-3.91A8.2,8.2,0,0,1,10.5,87.74Z"/><path class="cls-13" d="M39.07,13.56a3.74,3.74,0,1,1,3.74-3.74A3.75,3.75,0,0,1,39.07,13.56Zm0-5.91a2.18,2.18,0,1,0,2.17,2.17A2.18,2.18,0,0,0,39.07,7.65Z"/><path class="cls-14" d="M335.59,129.33a3.74,3.74,0,1,1,3.74-3.74A3.75,3.75,0,0,1,335.59,129.33Zm0-5.92a2.18,2.18,0,1,0,2.18,2.18A2.19,2.19,0,0,0,335.59,123.41Z"/><path class="cls-15" d="M274,154.75a3.74,3.74,0,1,1,3.74-3.74A3.75,3.75,0,0,1,274,154.75Zm0-5.92a2.18,2.18,0,1,0,2.18,2.18A2.18,2.18,0,0,0,274,148.83Z"/><path class="cls-16" d="M195.26,182.68a3.74,3.74,0,1,1,3.74-3.74A3.75,3.75,0,0,1,195.26,182.68Zm0-5.92a2.18,2.18,0,1,0,2.18,2.18A2.19,2.19,0,0,0,195.26,176.76Z"/><path class="cls-17" d="M299.85,49.76A3.74,3.74,0,1,1,303.59,46,3.74,3.74,0,0,1,299.85,49.76Zm0-5.92A2.18,2.18,0,1,0,302,46,2.19,2.19,0,0,0,299.85,43.84Z"/></g></g></svg>