<svg id="Layer_1" data-name="Layer 1" xmlns="http://www.w3.org/2000/svg" viewBox="0 0 95 95"><defs><style>.cls-1{fill:#fff;}</style></defs><title>new module</title><path class="cls-1" d="M44.93,50.27a7.62,7.62,0,0,0-2.42-1.6,10.31,10.31,0,0,0-3.38-.74c-2.33-.15-3.5-.25-5.82-.5V61.72c2.32.25,3.49.35,5.82.5a8.85,8.85,0,0,0,3.19-.35,6.56,6.56,0,0,0,2.46-1.37,6,6,0,0,0,1.57-2.23,7.44,7.44,0,0,0,.55-2.94,7.73,7.73,0,0,0-.49-2.77A6.41,6.41,0,0,0,44.93,50.27ZM43,57a3.92,3.92,0,0,1-.79,1.31,3.36,3.36,0,0,1-1.29.84,4.26,4.26,0,0,1-1.75.22l-2.22-.16V50.67l2.22.16a4.94,4.94,0,0,1,1.73.4,4,4,0,0,1,1.3.93,4.11,4.11,0,0,1,.8,1.36,5.38,5.38,0,0,1,.27,1.74A5.08,5.08,0,0,1,43,57Z"/><path class="cls-1" d="M54.86,62.33a9.31,9.31,0,0,0,3.2-.71A7.88,7.88,0,0,0,60.51,60a7.08,7.08,0,0,0,1.57-2.41,7.93,7.93,0,0,0,.55-3,7.51,7.51,0,0,0-.49-2.72,5.62,5.62,0,0,0-1.47-2.12,6.61,6.61,0,0,0-2.43-1.33A9.85,9.85,0,0,0,54.86,48c-2.33.12-3.49.15-5.83.17,0,5.71,0,8.57,0,14.28C51.37,62.48,52.53,62.44,54.86,62.33ZM52.64,51l2.22-.09a4.79,4.79,0,0,1,1.74.2,3.24,3.24,0,0,1,1.29.78,3.46,3.46,0,0,1,.81,1.28A5,5,0,0,1,59,54.9a5.3,5.3,0,0,1-.27,1.72A4.63,4.63,0,0,1,57.91,58a4.09,4.09,0,0,1-1.29,1,4.43,4.43,0,0,1-1.76.42l-2.22.09Z"/><path class="cls-1" d="M23.13,23.79a2,2,0,0,0-2,2v7.86a2,2,0,0,0,4.07,0V25.76A2,2,0,0,0,23.13,23.79Z"/><path class="cls-1" d="M23.13,67a2,2,0,0,0-2,2v7.86a2,2,0,0,0,4.07,0V69A2,2,0,0,0,23.13,67Z"/><path class="cls-1" d="M29.9,23.78a2.17,2.17,0,0,0-2.2,2.13v8.53a2.21,2.21,0,0,0,4.41,0V25.91A2.18,2.18,0,0,0,29.9,23.78Z"/><path class="cls-1" d="M29.9,70.68a2.16,2.16,0,0,0-2.2,2.13v8.52a2.21,2.21,0,0,0,4.41,0V72.81A2.17,2.17,0,0,0,29.9,70.68Z"/><path class="cls-1" d="M47.42,2.44c-14.8,0-36.81,2.68-36.81,10.05v70c0,7.37,22,10,36.81,10s36.8-2.68,36.8-10v-70C84.22,5.12,62.21,2.44,47.42,2.44Zm33.8,56.31c0,2.46-11.61,7-33.8,7s-33.81-4.58-33.81-7V39.15c6.52,4.16,22.33,5.77,33.81,5.77s27.28-1.61,33.8-5.77Zm0-23.87c0,2.46-11.61,7-33.8,7s-33.81-4.58-33.81-7V16.76c6.52,4.17,22.33,5.78,33.81,5.78s27.28-1.61,33.8-5.78ZM47.42,5.44c22.19,0,33.8,4.59,33.8,7.05s-11.61,7-33.8,7-33.81-4.59-33.81-7S25.22,5.44,47.42,5.44Zm0,84.06c-22.2,0-33.81-4.59-33.81-7V63c6.52,4.16,22.33,5.77,33.81,5.77S74.7,67.18,81.22,63V82.45C81.22,84.91,69.61,89.5,47.42,89.5Z"/></svg>