<svg id="Layer_1" data-name="Layer 1" xmlns="http://www.w3.org/2000/svg" viewBox="0 0 95 95"><defs><style>.cls-1{fill:#fff;}</style></defs><title>sci-white</title><path class="cls-1" d="M26.66,29.58a4.86,4.86,0,0,0-.37,1.86,5,5,0,0,0,.4,1.95,5.43,5.43,0,0,0,1.12,1.72,5.69,5.69,0,0,0,1.74,1.22,5.37,5.37,0,0,0,2.22.45,6.44,6.44,0,0,0,1.42-.16,6.31,6.31,0,0,0,1.37-.46,4.67,4.67,0,0,0,1.13-.76,3.06,3.06,0,0,0,.75-1L34,33a1.69,1.69,0,0,1-.37.59,2.07,2.07,0,0,1-.54.39,2.09,2.09,0,0,1-.62.22,2.83,2.83,0,0,1-.63.07A2.4,2.4,0,0,1,30,33.44a2.53,2.53,0,0,1-.49-.88,3,3,0,0,1-.17-1,3.67,3.67,0,0,1,.14-1,2.77,2.77,0,0,1,.45-.87,2.18,2.18,0,0,1,.77-.63,2.39,2.39,0,0,1,1.11-.24,3.63,3.63,0,0,1,.64.06,2.34,2.34,0,0,1,.63.21,1.87,1.87,0,0,1,1,1l2.29-1.55a4.14,4.14,0,0,0-1.73-1.63,5.66,5.66,0,0,0-2.74-.62,5.83,5.83,0,0,0-2.35.45,5.45,5.45,0,0,0-1.75,1.18A5,5,0,0,0,26.66,29.58Z"/><path class="cls-1" d="M45.68,35.28a4.63,4.63,0,0,0,1.11-1.63,5.61,5.61,0,0,0,.39-2.13,5.5,5.5,0,0,0-.35-2,4.46,4.46,0,0,0-1-1.64,4.91,4.91,0,0,0-1.72-1.11,6.49,6.49,0,0,0-2.38-.4H37.5V36.7h4.19a6.63,6.63,0,0,0,2.25-.37A5.06,5.06,0,0,0,45.68,35.28Zm-3-1.26a2.48,2.48,0,0,1-1,.2h-1.2V28.84h1.2a2.46,2.46,0,0,1,1,.2,2.23,2.23,0,0,1,.77.54,2.58,2.58,0,0,1,.49.84,3.52,3.52,0,0,1,.16,1.1A3.34,3.34,0,0,1,44,32.59a2.32,2.32,0,0,1-.47.86A2.25,2.25,0,0,1,42.73,34Z"/><path class="cls-1" d="M53.13,34.14a1.22,1.22,0,0,1-.68.13,4.58,4.58,0,0,1-1.27-.18,8.41,8.41,0,0,1-1.11-.39A9.06,9.06,0,0,1,49,33.13l-1.29,2.49a8.85,8.85,0,0,0,1.07.5,10.52,10.52,0,0,0,1.2.37,10.63,10.63,0,0,0,1.25.25,8.66,8.66,0,0,0,1.22.09,6.9,6.9,0,0,0,1.5-.17,4.19,4.19,0,0,0,1.34-.54,2.91,2.91,0,0,0,.95-1,3.1,3.1,0,0,0,.36-1.56,3,3,0,0,0-.23-1.24,2.23,2.23,0,0,0-.66-.86,4,4,0,0,0-1-.62,9.32,9.32,0,0,0-1.36-.48l-.85-.25a5.77,5.77,0,0,1-.63-.21,1.14,1.14,0,0,1-.4-.24.42.42,0,0,1-.14-.34.41.41,0,0,1,.24-.39,1.4,1.4,0,0,1,.63-.11,3.58,3.58,0,0,1,1,.15,9.29,9.29,0,0,1,1.88.79l1.29-2.34L55.46,27c-.31-.13-.64-.25-1-.37a9.3,9.3,0,0,0-1.1-.27,5.66,5.66,0,0,0-1.17-.11,5.21,5.21,0,0,0-1.54.22,4.22,4.22,0,0,0-1.3.67,3.17,3.17,0,0,0-.89,1.09,3.29,3.29,0,0,0-.33,1.51,2.8,2.8,0,0,0,.16,1,1.9,1.9,0,0,0,.5.78,3.21,3.21,0,0,0,.86.61,8.33,8.33,0,0,0,1.24.51c.33.1.64.2.93.27s.55.16.77.24a1.38,1.38,0,0,1,.53.27.45.45,0,0,1,.2.37A.37.37,0,0,1,53.13,34.14Z"/><path class="cls-1" d="M57.87,36.7h3V33.52h1.79a3.49,3.49,0,0,0,2.6-1.09A3.94,3.94,0,0,0,66,31.28,3.66,3.66,0,0,0,66.24,30,3.22,3.22,0,0,0,66,28.64a3.66,3.66,0,0,0-.76-1.15A3.89,3.89,0,0,0,64,26.68a3.43,3.43,0,0,0-1.47-.31h-4.7Zm3-7.86h1.51a.88.88,0,0,1,.55.23,1.1,1.1,0,0,1,.28.88,1.21,1.21,0,0,1-.24.86.72.72,0,0,1-.51.24H60.86Z"/><path class="cls-1" d="M36.21,18.8H55a4.51,4.51,0,0,0,4.5-4.5v-8A4.51,4.51,0,0,0,55,1.8H36.21a4.51,4.51,0,0,0-4.5,4.5v8A4.51,4.51,0,0,0,36.21,18.8ZM34.71,6.3a1.5,1.5,0,0,1,1.5-1.5H55a1.5,1.5,0,0,1,1.5,1.5v8A1.5,1.5,0,0,1,55,15.8H36.21a1.5,1.5,0,0,1-1.5-1.5Z"/><path class="cls-1" d="M59.54,57.86v-8a4.51,4.51,0,0,0-4.5-4.5H36.21a4.51,4.51,0,0,0-4.5,4.5v8a4.51,4.51,0,0,0,4.5,4.5H55A4.51,4.51,0,0,0,59.54,57.86Zm-3,0a1.5,1.5,0,0,1-1.5,1.5H36.21a1.5,1.5,0,0,1-1.5-1.5v-8a1.5,1.5,0,0,1,1.5-1.5H55a1.5,1.5,0,0,1,1.5,1.5Z"/><path class="cls-1" d="M15.31,78.9h20.3a3.77,3.77,0,0,0,3.76-3.76V72.38a3.77,3.77,0,0,0-3.76-3.77H15.31a3.77,3.77,0,0,0-3.77,3.77v2.76A3.77,3.77,0,0,0,15.31,78.9Zm-.77-6.52a.77.77,0,0,1,.77-.77h20.3a.77.77,0,0,1,.76.77v2.76a.76.76,0,0,1-.76.76H15.31a.76.76,0,0,1-.77-.76Z"/><path class="cls-1" d="M54.84,68.61H44.48a1.5,1.5,0,0,0,0,3H54.84a1.5,1.5,0,0,0,0-3Z"/><path class="cls-1" d="M44.48,75.9a1.5,1.5,0,1,0,0,3H48a1.5,1.5,0,0,0,0-3Z"/><path class="cls-1" d="M54.84,75.9H51.31a1.5,1.5,0,0,0,0,3h3.53a1.5,1.5,0,0,0,0-3Z"/><path class="cls-1" d="M14.28,33.29H23a1.5,1.5,0,0,0,0-3H14.28A4.33,4.33,0,0,0,10,34.61V51.05a4.33,4.33,0,0,0,4.32,4.31H22l-3.71,3.72a1.5,1.5,0,0,0,1.06,2.56,1.53,1.53,0,0,0,1.06-.44l6.27-6.28a1.63,1.63,0,0,0,.33-.49s0,0,0,0a1.56,1.56,0,0,0,0-1.1v0a1.51,1.51,0,0,0-.33-.49l-6.27-6.28a1.51,1.51,0,0,0-2.12,0,1.49,1.49,0,0,0,0,2.12L22,52.36H14.28A1.32,1.32,0,0,1,13,51.05V34.61A1.32,1.32,0,0,1,14.28,33.29Z"/><path class="cls-1" d="M65.19,11.77h11.7a1.32,1.32,0,0,1,1.31,1.32V29.53a1.31,1.31,0,0,1-1.31,1.31H73.14l3.72-3.71a1.51,1.51,0,0,0,0-2.12,1.49,1.49,0,0,0-2.12,0l-6.28,6.27a2.11,2.11,0,0,0-.19.23.25.25,0,0,1,0,.07c0,.06-.07.12-.1.19s0,.06,0,.09a.6.6,0,0,0-.06.19,1.36,1.36,0,0,0,0,.29,1.53,1.53,0,0,0,0,.3.64.64,0,0,0,.06.18s0,.07,0,.1l.1.18a.3.3,0,0,1,0,.08,2,2,0,0,0,.19.22l6.28,6.28a1.49,1.49,0,0,0,1.06.44,1.53,1.53,0,0,0,1.06-.44,1.51,1.51,0,0,0,0-2.12l-3.72-3.72h3.75a4.32,4.32,0,0,0,4.31-4.31V13.09a4.33,4.33,0,0,0-4.31-4.32H65.19a1.5,1.5,0,0,0,0,3Z"/><path class="cls-1" d="M83.9,67.61l4.19-4.24a1.49,1.49,0,0,0,.44-1V23.77a1.5,1.5,0,1,0-3,0V61.7l-4.81,4.85a1.78,1.78,0,0,0-.25.38c-.27,0-.55,0-.83,0A13.17,13.17,0,0,0,66.49,80.05c0,.31,0,.62,0,.93a1.25,1.25,0,0,0-.24.16l-1.41,1.43L65,69.41a5.49,5.49,0,0,1,5.48-5.48h5.47a1.5,1.5,0,0,0,0-3H70.44A8.49,8.49,0,0,0,62,69.4l-.1,15.34H10.08a4.93,4.93,0,0,1-4.88-5v-56a4.93,4.93,0,0,1,4.88-5H26.44a1.5,1.5,0,0,0,0-3H10.08a7.94,7.94,0,0,0-7.88,8v56a7.93,7.93,0,0,0,7.88,8H63.35a1.53,1.53,0,0,0,.3,0,1.48,1.48,0,0,0,.77-.41h0l2.84-2.87A13.15,13.15,0,1,0,83.9,67.61ZM79.64,91a10.91,10.91,0,1,1,10.91-10.9A10.91,10.91,0,0,1,79.64,91Z"/><path class="cls-1" d="M80.8,72.14H78.6c-.91,0-1.17.26-1.1,1.15.22,2.45.46,4.9.7,7.36a1,1,0,0,0,1,1h.68a1,1,0,0,0,1.18-1.08l.18-2c.17-1.8.35-3.6.5-5.4C81.85,72.44,81.55,72.15,80.8,72.14Z"/><path class="cls-1" d="M79.65,84.35c-1.73,0-1.82.07-1.81,1.8s.06,1.8,1.8,1.8,1.81-.08,1.8-1.8S81.38,84.36,79.65,84.35Z"/></svg>