<svg id="Layer_1" data-name="Layer 1" xmlns="http://www.w3.org/2000/svg" viewBox="0 0 95 95"><defs><style>.cls-1{fill:#fff;}</style></defs><title>sci-white</title><rect class="cls-1" x="15.75" y="51.46" width="3.08" height="12.64"/><polygon class="cls-1" points="28.18 58.06 24.72 51.46 21.38 51.46 21.38 64.1 24.46 64.1 24.46 56.53 27.35 62.03 29 62.03 31.9 56.53 31.9 64.1 34.98 64.1 34.98 51.46 31.65 51.46 28.18 58.06"/><rect class="cls-1" x="37.53" y="51.46" width="3.08" height="12.64"/><path class="cls-1" d="M80.33,36.1H56.87a4.5,4.5,0,0,0-4.5,4.5V52.36a4.51,4.51,0,0,0,4.5,4.5H80.33a4.51,4.51,0,0,0,4.5-4.5V40.6A4.5,4.5,0,0,0,80.33,36.1Zm1.5,16.26a1.5,1.5,0,0,1-1.5,1.5H56.87a1.5,1.5,0,0,1-1.5-1.5V40.6a1.5,1.5,0,0,1,1.5-1.5H80.33a1.5,1.5,0,0,1,1.5,1.5Z"/><path class="cls-1" d="M80.66,63.06H56.54a1.5,1.5,0,1,0,0,3H80.66a1.5,1.5,0,0,0,0-3Z"/><path class="cls-1" d="M64.76,72.3H56.54a1.5,1.5,0,0,0,0,3h8.22a1.5,1.5,0,0,0,0-3Z"/><path class="cls-1" d="M80.66,72.3H72.44a1.5,1.5,0,0,0,0,3h8.22a1.5,1.5,0,0,0,0-3Z"/><path class="cls-1" d="M85.74,7H9.26A6.47,6.47,0,0,0,2.8,13.49v68A6.47,6.47,0,0,0,9.26,88H85.74a6.47,6.47,0,0,0,6.46-6.46v-68A6.47,6.47,0,0,0,85.74,7ZM9.26,10H85.74a3.46,3.46,0,0,1,3.46,3.46V24.58H5.8V13.49A3.46,3.46,0,0,1,9.26,10ZM85.74,85H9.26A3.46,3.46,0,0,1,5.8,81.51V27.58H89.2V81.51A3.46,3.46,0,0,1,85.74,85Z"/><path class="cls-1" d="M12.8,21.16a3.87,3.87,0,0,0,0-7.73,3.87,3.87,0,0,0,0,7.73Zm0-5.73a1.88,1.88,0,0,1,0,3.73,1.88,1.88,0,0,1,0-3.73Z"/><path class="cls-1" d="M23.89,21.05a3.86,3.86,0,1,0-3.68-3.86A3.78,3.78,0,0,0,23.89,21.05Zm0-5.72a1.87,1.87,0,1,1-1.68,1.86A1.78,1.78,0,0,1,23.89,15.33Z"/><path class="cls-1" d="M34.78,21.05a3.77,3.77,0,0,0,3.67-3.86,3.68,3.68,0,1,0-7.35,0A3.78,3.78,0,0,0,34.78,21.05Zm0-5.72a1.77,1.77,0,0,1,1.67,1.86,1.68,1.68,0,1,1-3.35,0A1.77,1.77,0,0,1,34.78,15.33Z"/><path class="cls-1" d="M50.28,18.08H84.19a1,1,0,0,0,0-2H50.28a1,1,0,0,0,0,2Z"/></svg>