<svg id="Layer_1" data-name="Layer 1" xmlns="http://www.w3.org/2000/svg" viewBox="0 0 95 95"><defs><style>.cls-1{fill:#fff;}</style></defs><title>sci-white</title><path class="cls-1" d="M46.18,48.43A5.86,5.86,0,0,0,48,49.69a5.55,5.55,0,0,0,2.29.47A6.91,6.91,0,0,0,51.72,50a6.24,6.24,0,0,0,1.4-.48,4.78,4.78,0,0,0,1.17-.78,3,3,0,0,0,.77-1l-2.51-1.42a2,2,0,0,1-.39.61,2.2,2.2,0,0,1-.56.4,2.33,2.33,0,0,1-.64.23,3.57,3.57,0,0,1-.65.06,2.38,2.38,0,0,1-1.08-.23,2.51,2.51,0,0,1-.82-.62,2.82,2.82,0,0,1-.5-.9,3.2,3.2,0,0,1-.17-1.07,3.09,3.09,0,0,1,.15-1,2.72,2.72,0,0,1,.45-.9,2.34,2.34,0,0,1,.8-.65A2.52,2.52,0,0,1,50.28,42a3.85,3.85,0,0,1,.66.06,2.54,2.54,0,0,1,.66.21,2.06,2.06,0,0,1,.57.41,1.7,1.7,0,0,1,.42.64L55,41.68A4.2,4.2,0,0,0,53.17,40a5.87,5.87,0,0,0-2.82-.64,6,6,0,0,0-2.43.46A5.9,5.9,0,0,0,46.12,41,5.12,5.12,0,0,0,45,42.73a5,5,0,0,0-.39,1.92,5.24,5.24,0,0,0,.41,2A5.63,5.63,0,0,0,46.18,48.43Z"/><path class="cls-1" d="M62.8,49.69a5.35,5.35,0,0,0,1.79-1.08,4.79,4.79,0,0,0,1.15-1.68,5.75,5.75,0,0,0,.4-2.2,5.83,5.83,0,0,0-.36-2.06A4.75,4.75,0,0,0,64.7,41a5,5,0,0,0-1.77-1.14,6.66,6.66,0,0,0-2.45-.42H56.15V50.07h4.33A6.8,6.8,0,0,0,62.8,49.69ZM59.24,42h1.24a2.78,2.78,0,0,1,1.06.2,2.41,2.41,0,0,1,.8.56,2.46,2.46,0,0,1,.49.87A3.39,3.39,0,0,1,63,44.73a3.59,3.59,0,0,1-.17,1.11,2.44,2.44,0,0,1-.49.88,2.25,2.25,0,0,1-.8.59,2.59,2.59,0,0,1-1.07.21H59.24Z"/><polygon class="cls-1" points="75.5 47.52 70.57 47.52 70.57 45.84 74.66 45.84 74.66 43.47 70.57 43.47 70.57 41.97 75.35 41.97 75.35 39.42 67.49 39.42 67.49 50.07 75.5 50.07 75.5 47.52"/><circle class="cls-1" cx="47.8" cy="17.38" r="3.06"/><circle class="cls-1" cx="62.35" cy="17.38" r="3.06"/><circle class="cls-1" cx="76.9" cy="17.38" r="3.06"/><circle class="cls-1" cx="47.8" cy="71.29" r="3.06"/><circle class="cls-1" cx="62.35" cy="71.29" r="3.06"/><path class="cls-1" d="M91.74,71.63a1.62,1.62,0,0,0,.1-.54V59.92a3.47,3.47,0,0,0-.72-2.11,3.45,3.45,0,0,0,.72-2.11V33a3.47,3.47,0,0,0-.72-2.11,3.47,3.47,0,0,0,.72-2.11V6a3.51,3.51,0,0,0-3.5-3.51H4.26A3.51,3.51,0,0,0,.75,6V28.75a3.48,3.48,0,0,0,.73,2.11A3.48,3.48,0,0,0,.75,33V55.7a3.46,3.46,0,0,0,.73,2.11,3.48,3.48,0,0,0-.73,2.11V82.65a3.51,3.51,0,0,0,3.51,3.51H69.87A13.14,13.14,0,1,0,91.74,71.63ZM3.75,33a.5.5,0,0,1,.51-.5H88.34a.5.5,0,0,1,.5.5V55.7a.5.5,0,0,1-.5.5H4.26a.5.5,0,0,1-.51-.5ZM3.75,6a.51.51,0,0,1,.51-.51H88.34a.5.5,0,0,1,.5.51V28.75a.5.5,0,0,1-.5.5H4.26a.51.51,0,0,1-.51-.5Zm.51,77.14a.51.51,0,0,1-.51-.51V59.92a.51.51,0,0,1,.51-.5H88.34a.5.5,0,0,1,.5.5v8.81a13,13,0,0,0-7.74-2.55,13.15,13.15,0,0,0-12.59,17ZM81.1,90.24A10.91,10.91,0,1,1,92,79.33,10.92,10.92,0,0,1,81.1,90.24Z"/><path class="cls-1" d="M82.25,71.43c-.37,0-.75,0-1.13,0H80.05c-.9,0-1.17.25-1.09,1.14q.33,3.69.69,7.36a1,1,0,0,0,1,1c.22,0,.45,0,.68,0a1.05,1.05,0,0,0,1.17-1.09c.07-.65.12-1.31.19-2,.16-1.79.35-3.59.5-5.39C83.3,71.72,83,71.44,82.25,71.43Z"/><path class="cls-1" d="M81.1,83.63c-1.73,0-1.81.08-1.81,1.8s.07,1.8,1.8,1.81,1.81-.08,1.81-1.8S82.84,83.64,81.1,83.63Z"/><path class="cls-1" d="M17.17,24a6.59,6.59,0,1,0-6.59-6.59A6.59,6.59,0,0,0,17.17,24Zm0-10.17a3.59,3.59,0,1,1-3.59,3.58A3.59,3.59,0,0,1,17.17,13.8Z"/><path class="cls-1" d="M17.17,51.57A6.59,6.59,0,1,0,10.58,45,6.59,6.59,0,0,0,17.17,51.57Zm0-10.17A3.59,3.59,0,1,1,13.58,45,3.59,3.59,0,0,1,17.17,41.4Z"/><path class="cls-1" d="M15.88,64.84a6.59,6.59,0,1,0,6.58,6.58A6.59,6.59,0,0,0,15.88,64.84Zm0,10.17a3.59,3.59,0,1,1,3.58-3.59A3.58,3.58,0,0,1,15.88,75Z"/></svg>