<svg id="Layer_1" data-name="Layer 1" xmlns="http://www.w3.org/2000/svg" viewBox="0 0 95 95"><defs><style>.cls-1{fill:#fff;}</style></defs><title>sci-white</title><path class="cls-1" d="M87.55,23.12H86.07V20a2.88,2.88,0,0,0-2.32-2.81c-1.7-.36-6-1.21-11-1.84V11.65c0-5.67-16.5-7.17-25.22-7.17S22.28,6,22.28,11.65v3.67c-5.05.63-9.33,1.48-11,1.84A2.88,2.88,0,0,0,8.93,20v3.15H7.45A4.39,4.39,0,0,0,3,27.43V83.35a4.38,4.38,0,0,0,4.45,4.3h31.4a1.48,1.48,0,0,1,1,.42l1.23,1.19a4.52,4.52,0,0,0,3.15,1.26h6.44a4.52,4.52,0,0,0,3.15-1.26l1.23-1.19a1.48,1.48,0,0,1,1-.42h31.4A4.38,4.38,0,0,0,92,83.35V27.43A4.39,4.39,0,0,0,87.55,23.12ZM47.5,7.35c14.45,0,22.25,3.05,22.25,4.3S62,16,47.5,16s-22.25-3-22.25-4.3S33.05,7.35,47.5,7.35Zm-22.25,8C30.4,18,41.06,18.82,47.5,18.82S64.6,18,69.75,15.3V27.43c0,1.24-7.8,4.3-22.25,4.3s-22.25-3.06-22.25-4.3Zm0,15.77c5.15,2.71,15.81,3.52,22.25,3.52s17.1-.81,22.25-3.52V43.2c0,1.25-7.8,4.3-22.25,4.3s-22.25-3-22.25-4.3Zm0,15.77c5.15,2.71,15.81,3.53,22.25,3.53s17.1-.82,22.25-3.53V59c0,1.25-7.8,4.3-22.25,4.3S25.25,60.22,25.25,59Zm-3-28.63V59c0,5.67,16.5,7.17,25.22,7.17S72.72,64.64,72.72,59V18.21c4.76.61,8.77,1.41,10.38,1.76v4.58h0V78.69c-8.21-1.68-27-4.77-34.13.48V70.44a1.48,1.48,0,0,0-3,0v8.67c-7.23-5.17-25.95-2.1-34.12-.42V20C13.5,19.62,17.52,18.82,22.28,18.21ZM89,83.35a1.45,1.45,0,0,1-1.48,1.43H56.15A4.52,4.52,0,0,0,53,86l-1.23,1.19a1.52,1.52,0,0,1-1.05.42H44.28a1.52,1.52,0,0,1-1.05-.42L42,86a4.5,4.5,0,0,0-3.15-1.26H7.45A1.45,1.45,0,0,1,6,83.35V27.43A1.46,1.46,0,0,1,7.45,26H8.93v52.7a2.85,2.85,0,0,0,1.12,2.25,3,3,0,0,0,2.45.56c12.74-2.61,28.94-4,32.69.78a2.94,2.94,0,0,0,2.31,1.09,3,3,0,0,0,2.31-1.09c3.75-4.75,20-3.39,32.67-.79A3,3,0,0,0,85,80.94a2.85,2.85,0,0,0,1.12-2.25V26h1.48A1.46,1.46,0,0,1,89,27.43Z"/><path class="cls-1" d="M29.7,27.43A1.46,1.46,0,0,0,31.18,26V20.26a1.48,1.48,0,0,0-3,0V26A1.46,1.46,0,0,0,29.7,27.43Z"/><path class="cls-1" d="M29.7,59a1.45,1.45,0,0,0,1.48-1.43V51.8a1.48,1.48,0,0,0-3,0v5.74A1.45,1.45,0,0,0,29.7,59Z"/><path class="cls-1" d="M35.63,28.86a1.46,1.46,0,0,0,1.49-1.43V21.69a1.49,1.49,0,0,0-3,0v5.74A1.45,1.45,0,0,0,35.63,28.86Z"/><path class="cls-1" d="M35.63,60.41A1.47,1.47,0,0,0,37.12,59V53.24a1.49,1.49,0,0,0-3,0V59A1.46,1.46,0,0,0,35.63,60.41Z"/><path class="cls-1" d="M39.44,45.85V36.06H43.3a6.15,6.15,0,0,1,2.24.38,4.68,4.68,0,0,1,1.61,1.05,4.4,4.4,0,0,1,1,1.55,5.46,5.46,0,0,1,.32,1.9,5.39,5.39,0,0,1-.36,2,4.37,4.37,0,0,1-1,1.55,4.69,4.69,0,0,1-1.63,1,6.2,6.2,0,0,1-2.12.35ZM46,40.94a3.65,3.65,0,0,0-.18-1.18,2.71,2.71,0,0,0-.53-.92,2.4,2.4,0,0,0-.86-.59A3,3,0,0,0,43.3,38H41.83v5.83H43.3a2.87,2.87,0,0,0,1.17-.23,2.29,2.29,0,0,0,.85-.61,2.68,2.68,0,0,0,.52-.92A3.68,3.68,0,0,0,46,40.94Z"/><path class="cls-1" d="M49.87,45.85V36.06h3.85a6.16,6.16,0,0,1,2.25.38,4.64,4.64,0,0,1,1.6,1.05,4.26,4.26,0,0,1,1,1.55,5.46,5.46,0,0,1,.33,1.9,5.19,5.19,0,0,1-.37,2,4.37,4.37,0,0,1-1,1.55,4.69,4.69,0,0,1-1.63,1,6.16,6.16,0,0,1-2.12.35Zm6.58-4.91a3.4,3.4,0,0,0-.19-1.18,2.55,2.55,0,0,0-.53-.92,2.4,2.4,0,0,0-.86-.59A3,3,0,0,0,53.72,38H52.25v5.83h1.47a2.87,2.87,0,0,0,1.17-.23,2.29,2.29,0,0,0,.85-.61,2.68,2.68,0,0,0,.52-.92A3.42,3.42,0,0,0,56.45,40.94Z"/></svg>