<svg id="Layer_1" data-name="Layer 1" xmlns="http://www.w3.org/2000/svg" viewBox="0 0 95 95"><defs><style>.cls-1{fill:#fff;}</style></defs><title>new module</title><path class="cls-1" d="M84.94,19.18c0-.05,0-.09,0-.14s0-.09,0-.14a1,1,0,0,0-.08-.14l-.06-.11a1.34,1.34,0,0,0-.11-.14.27.27,0,0,0-.07-.08L67.68,1.33h0A1.49,1.49,0,0,0,67.19,1h0L66.91.91a1.53,1.53,0,0,0-.3,0h-40A8.91,8.91,0,0,0,17.7,9,8.91,8.91,0,0,0,10,17.79V85.21a8.91,8.91,0,0,0,8.9,8.91H68.44A8.91,8.91,0,0,0,77.3,86,8.91,8.91,0,0,0,85,77.21V19.48A1.53,1.53,0,0,0,84.94,19.18ZM68.11,6,79.89,18H74a5.92,5.92,0,0,1-5.91-5.91Zm.33,85.08H18.93A5.91,5.91,0,0,1,13,85.21V17.79A5.9,5.9,0,0,1,17.66,12V77.21a8.92,8.92,0,0,0,8.9,8.91H74.27A5.92,5.92,0,0,1,68.44,91.12Zm7.63-8H26.56a5.91,5.91,0,0,1-5.9-5.91V9.79a5.91,5.91,0,0,1,5.9-5.91H65.11v8.19A8.92,8.92,0,0,0,74,21h8V77.21A5.91,5.91,0,0,1,76.07,83.12Z"/><path class="cls-1" d="M32.06,25.05A6,6,0,0,0,34,26.46a5.46,5.46,0,0,0,2.44.54A7.22,7.22,0,0,0,38,26.81a6.38,6.38,0,0,0,1.5-.54,5.11,5.11,0,0,0,1.25-.88,3.36,3.36,0,0,0,.82-1.18l-2.68-1.6a2.11,2.11,0,0,1-.42.68,2.19,2.19,0,0,1-.59.46,2.94,2.94,0,0,1-.68.25,3.42,3.42,0,0,1-.7.08,2.44,2.44,0,0,1-1.15-.27,2.39,2.39,0,0,1-.87-.7,3,3,0,0,1-.54-1,3.68,3.68,0,0,1-.19-1.2,4.39,4.39,0,0,1,.16-1.12,3.21,3.21,0,0,1,.49-1,2.5,2.5,0,0,1,2.07-1,3.46,3.46,0,0,1,.7.07,2.36,2.36,0,0,1,1.32.69,2.09,2.09,0,0,1,.44.73l2.52-1.79a4.7,4.7,0,0,0-1.9-1.9,6,6,0,0,0-3-.72,6.11,6.11,0,0,0-2.59.52A6.26,6.26,0,0,0,32,16.73a5.9,5.9,0,0,0-1.21,1.91,6,6,0,0,0-.41,2.16,5.94,5.94,0,0,0,.44,2.26A6.12,6.12,0,0,0,32.06,25.05Z"/><path class="cls-1" d="M46,23.21h1.23l2.11,3.69h3.72l-2.54-4.41A4,4,0,0,0,51.79,21a4.3,4.3,0,0,0,.45-2,4,4,0,0,0-.3-1.51,4.5,4.5,0,0,0-.83-1.34,4.33,4.33,0,0,0-1.28-.94,3.69,3.69,0,0,0-1.62-.36H42.7v12H46Zm0-5.43h2a.86.86,0,0,1,.61.33,1.35,1.35,0,0,1,.3.95,1.55,1.55,0,0,1-.26,1,.72.72,0,0,1-.57.33H46Z"/><path class="cls-1" d="M75,36.35H30a1.5,1.5,0,1,0,0,3H75a1.5,1.5,0,0,0,0-3Z"/><path class="cls-1" d="M75,46.65H30a1.5,1.5,0,1,0,0,3H75a1.5,1.5,0,0,0,0-3Z"/><path class="cls-1" d="M75,56.94H30a1.5,1.5,0,0,0,0,3H75a1.5,1.5,0,1,0,0-3Z"/><path class="cls-1" d="M75,67.24H30a1.5,1.5,0,0,0,0,3H75a1.5,1.5,0,0,0,0-3Z"/></svg>